<?xml version="1.0" encoding="UTF-8" standalone="no"?>
<!--

    Copyright (c) 2012-2018 Red Hat, Inc.
    All rights reserved. This program and the accompanying materials
    are made available under the terms of the Eclipse Public License v1.0
    which accompanies this distribution, and is available at
    http://www.eclipse.org/legal/epl-v10.html

    Contributors:
      Red Hat, Inc. - initial API and implementation

-->
<svg
   xmlns:dc="http://purl.org/dc/elements/1.1/"
   xmlns:cc="http://creativecommons.org/ns#"
   xmlns:rdf="http://www.w3.org/1999/02/22-rdf-syntax-ns#"
   xmlns:svg="http://www.w3.org/2000/svg"
   xmlns="http://www.w3.org/2000/svg"
   width="21"
   height="21"
   viewBox="0 0 21 21"
   version="1.1"
   id="svg4199">
  <metadata
     id="metadata4222">
    <rdf:RDF>
      <cc:Work
         rdf:about="">
        <dc:format>image/svg+xml</dc:format>
        <dc:type
           rdf:resource="http://purl.org/dc/dcmitype/StillImage" />
        <dc:title>apache-openwhisk</dc:title>
      </cc:Work>
    </rdf:RDF>
  </metadata>
  <!-- Generator: Sketch 41.2 (35397) - http://www.bohemiancoding.com/sketch -->
  <title
     id="title4201">apache-openwhisk</title>
  <desc
     id="desc4203">Created with Sketch.</desc>
  <defs
     id="defs4205" />
  <g
     id="Symbols"
     style="fill:none;fill-rule:evenodd;stroke:none;stroke-width:1">
    <g
       id="apache-openwhisk">
      <g
         id="Group-23"
         transform="matrix(0.67165209,0,0,0.67165209,0.23564955,0.45840814)">
        <polygon
           style="fill:#008571"
           points="25.27587,-0.00012304688 15.537455,0.002953125 25.270444,17.22644 30.142665,8.6119277 "
           id="Fill-1" />
        <polygon
           style="fill:#6eedd8"
           points="15.537636,0.0031376953 10.758253,8.6133428 20.405514,8.608776 "
           id="Fill-2" />
        <polygon
           style="fill:#325c80"
           points="0,11.075757 4.8203765,19.687808 14.465952,19.684116 4.8258021,2.4612451 "
           id="Fill-3" />
        <polygon
           style="fill:#5aaafa"
           points="9.6456963,11.077418 14.466073,19.684547 19.291272,11.074342 "
           id="Fill-4" />
      </g>
      <g
         id="g4929"
         transform="matrix(0.25581662,0,0,0.25581662,-0.36569899,5.5263179)">
        <text
           font-weight="400"
           font-size="4"
           id="TM"
           style="font-weight:400;font-size:4px;font-family:Lato-Medium, Lato;fill:#29558f"
           x="-34.361969"
           y="36.255314">
          <tspan
             id="tspan4333"
             y="47.255314"
             x="76.638031">TM</tspan>
        </text>
        <path
           id="OpenWhisk"
           d="m 13.987031,49.727886 c 0,0.751338 -0.118999,1.440831 -0.357,2.068501 -0.238001,0.627669 -0.573998,1.167831 -1.008,1.620499 -0.434002,0.452669 -0.955497,0.803833 -1.5645,1.0535 -0.609003,0.249668 -1.2821628,0.3745 -2.0194998,0.3745 -0.737337,0 -1.40933,-0.124832 -2.016,-0.3745 -0.60667,-0.249667 -1.126998,-0.600831 -1.561,-1.0535 -0.434002,-0.452668 -0.769999,-0.99283 -1.008,-1.620499 -0.238001,-0.62767 -0.357,-1.317163 -0.357,-2.068501 0,-0.751337 0.118999,-1.44083 0.357,-2.068499 0.238001,-0.62767 0.573998,-1.168998 1.008,-1.624 0.434002,-0.455003 0.95433,-0.808499 1.561,-1.0605 0.60667,-0.252002 1.278663,-0.378 2.016,-0.378 0.737337,0 1.4104968,0.125998 2.0194998,0.378 0.609003,0.252001 1.130498,0.605497 1.5645,1.0605 0.434002,0.455002 0.769999,0.99633 1.008,1.624 0.238001,0.627669 0.357,1.317162 0.357,2.068499 z m -1.393,0 c 0,-0.616003 -0.084,-1.168997 -0.252,-1.658999 -0.168001,-0.490003 -0.405999,-0.904165 -0.714,-1.2425 -0.308002,-0.338335 -0.681331,-0.598499 -1.12,-0.7805 -0.438669,-0.182001 -0.9286638,-0.273 -1.4699998,-0.273 -0.536669,0 -1.024331,0.091 -1.463,0.273 -0.438669,0.182001 -0.813165,0.442165 -1.1235,0.7805 -0.310335,0.338335 -0.549499,0.752497 -0.7175,1.2425 -0.168001,0.490002 -0.252,1.042996 -0.252,1.658999 0,0.616004 0.084,1.167831 0.252,1.6555 0.168001,0.48767 0.407165,0.900665 0.7175,1.239 0.310335,0.338335 0.684831,0.597333 1.1235,0.777 0.438669,0.179668 0.926331,0.2695 1.463,0.2695 0.541336,0 1.0313308,-0.08983 1.4699998,-0.2695 0.438669,-0.179667 0.811998,-0.438665 1.12,-0.777 0.308001,-0.338335 0.545999,-0.75133 0.714,-1.239 0.168001,-0.487669 0.252,-1.039496 0.252,-1.6555 z m 4.151,3.304001 c 0.228668,0.308001 0.478332,0.524999 0.749,0.650999 0.270668,0.126001 0.573998,0.189 0.91,0.189 0.66267,0 1.171332,-0.235664 1.526,-0.707 0.354668,-0.471335 0.532,-1.143328 0.532,-2.015999 0,-0.462003 -0.04083,-0.858665 -0.1225,-1.190001 -0.08167,-0.331334 -0.199499,-0.603165 -0.3535,-0.815499 -0.154001,-0.212335 -0.342999,-0.3675 -0.567,-0.4655 -0.224001,-0.098 -0.478332,-0.147 -0.763,-0.147 -0.406002,0 -0.761832,0.09333 -1.0675,0.28 -0.305668,0.186667 -0.586832,0.450331 -0.8435,0.791 l 0,3.43 z m -0.063,-4.284 c 0.298668,-0.368669 0.643998,-0.664999 1.036,-0.889 0.392002,-0.224002 0.839997,-0.336001 1.344,-0.336001 0.410669,0 0.781665,0.07817 1.113,0.234501 0.331335,0.156334 0.613666,0.387331 0.847,0.692999 0.233334,0.305669 0.412999,0.684832 0.539,1.137501 0.126001,0.452668 0.189,0.972997 0.189,1.561 0,0.522669 -0.07,1.009164 -0.21,1.459499 -0.140001,0.450336 -0.341832,0.839999 -0.6055,1.169 -0.263668,0.329002 -0.585665,0.588 -0.966,0.777 -0.380335,0.189001 -0.808498,0.2835 -1.2845,0.2835 -0.434002,0 -0.806165,-0.0735 -1.1165,-0.2205 -0.310335,-0.147 -0.584499,-0.351165 -0.8225,-0.6125 l 0,3.136 -1.253,0 0,-9.491999 0.749,0 c 0.177334,0 0.287,0.08633 0.329,0.259 l 0.112,0.84 z m 11.403,1.673 c 0,-0.289335 -0.04083,-0.554166 -0.1225,-0.7945 -0.08167,-0.240335 -0.200666,-0.448 -0.357,-0.623 -0.156334,-0.175001 -0.346499,-0.310333 -0.5705,-0.406 -0.224001,-0.09567 -0.478332,-0.1435 -0.763,-0.1435 -0.597336,0 -1.069832,0.173831 -1.4175,0.5215 -0.347668,0.347668 -0.5635,0.829496 -0.6475,1.4455 l 3.878,0 z m 1.008,3.324999 c -0.154001,0.186668 -0.338332,0.348833 -0.553,0.4865 -0.214668,0.137668 -0.444499,0.250833 -0.6895,0.3395 -0.245001,0.08867 -0.498165,0.155167 -0.7595,0.1995 -0.261335,0.04433 -0.520332,0.0665 -0.777,0.0665 -0.490002,0 -0.941498,-0.08283 -1.3545,-0.2485 -0.413002,-0.165667 -0.769999,-0.408331 -1.071,-0.728 -0.301002,-0.319668 -0.535499,-0.715164 -0.7035,-1.1865 -0.168001,-0.471335 -0.252,-1.012663 -0.252,-1.623999 0,-0.49467 0.07583,-0.956665 0.2275,-1.386 0.151667,-0.429336 0.369832,-0.801499 0.6545,-1.1165 0.284668,-0.315002 0.632331,-0.562333 1.043,-0.742001 0.410669,-0.179667 0.872664,-0.269499 1.386,-0.269499 0.424669,0 0.817831,0.07117 1.1795,0.2135 0.361668,0.142334 0.674332,0.347665 0.938,0.616 0.263668,0.268334 0.470166,0.599664 0.6195,0.994 0.149334,0.394335 0.224,0.843497 0.224,1.3475 0,0.196001 -0.021,0.326666 -0.063,0.391999 -0.042,0.06533 -0.121333,0.098 -0.238,0.098 l -4.739,0 c 0.014,0.448002 0.07583,0.837664 0.1855,1.168999 0.109667,0.331336 0.262499,0.607833 0.4585,0.829501 0.196001,0.221667 0.429332,0.387332 0.7,0.497 0.270668,0.109667 0.573998,0.164499 0.91,0.164499 0.312668,0 0.582165,-0.03617 0.8085,-0.1085 0.226334,-0.07233 0.421166,-0.150499 0.5845,-0.2345 0.163334,-0.084 0.299833,-0.162166 0.4095,-0.234499 0.109667,-0.07233 0.204166,-0.108501 0.2835,-0.108501 0.102667,0 0.182,0.03967 0.238,0.119001 l 0.35,0.454999 z m 2.814,-5.067999 c 0.154001,-0.172668 0.317332,-0.329 0.49,-0.469001 0.172668,-0.14 0.355832,-0.260166 0.5495,-0.3605 0.193668,-0.100333 0.398999,-0.177333 0.616,-0.231 0.217001,-0.05367 0.451499,-0.0805 0.7035,-0.0805 0.387335,0 0.729165,0.06417 1.0255,0.192499 0.296335,0.128335 0.543666,0.310333 0.742,0.546001 0.198334,0.235667 0.348833,0.519165 0.4515,0.8505 0.102667,0.331335 0.154,0.697664 0.154,1.098999 l 0,4.515 -1.253,0 0,-4.515 c 0,-0.536669 -0.122499,-0.953165 -0.3675,-1.249499 -0.245001,-0.296335 -0.617164,-0.4445 -1.1165,-0.4445 -0.368669,0 -0.712832,0.08866 -1.0325,0.266 -0.319668,0.177334 -0.614832,0.417665 -0.8855,0.721 l 0,5.221999 -1.253,0 0,-7.090999 0.749,0 c 0.177334,0 0.287,0.08633 0.329,0.259 l 0.098,0.77 z m 19.285,-3.969 -3.129,10.030999 -1.218,0 -2.541,-7.650999 c -0.02333,-0.07467 -0.0455,-0.154 -0.0665,-0.238 l -0.0665,-0.266 c -0.02333,0.09333 -0.04667,0.181999 -0.07,0.266 -0.02333,0.084 -0.04667,0.163333 -0.07,0.238 l -2.555,7.650999 -1.218,0 -3.129,-10.030999 1.127,0 c 0.121334,0 0.222833,0.03033 0.3045,0.091 0.08167,0.06067 0.134167,0.137666 0.1575,0.231 l 2.072,6.972 c 0.03267,0.126 0.06417,0.261332 0.0945,0.405999 0.03033,0.144668 0.0595,0.298666 0.0875,0.462 0.03267,-0.163334 0.0665,-0.318499 0.1015,-0.465499 0.035,-0.147001 0.0735,-0.281167 0.1155,-0.4025 l 2.359,-6.972 c 0.028,-0.07933 0.08283,-0.152833 0.1645,-0.2205 0.08167,-0.06767 0.180833,-0.1015 0.2975,-0.1015 l 0.392,0 c 0.121334,0 0.219333,0.03033 0.294,0.091 0.07467,0.06067 0.130666,0.137666 0.168,0.231 l 2.352,6.972 c 0.042,0.121333 0.0805,0.251999 0.1155,0.391999 0.035,0.140001 0.06883,0.287 0.1015,0.441 0.02333,-0.154 0.049,-0.300999 0.077,-0.441 0.028,-0.14 0.05833,-0.270666 0.091,-0.391999 l 2.079,-6.972 c 0.02333,-0.084 0.07583,-0.158667 0.1575,-0.224 0.08167,-0.06533 0.180833,-0.098 0.2975,-0.098 l 1.057,0 z m 2.387,3.885 c 0.303335,-0.322002 0.639331,-0.578666 1.008,-0.770001 0.368668,-0.191334 0.793331,-0.286999 1.274,-0.286999 0.387335,0 0.729165,0.06417 1.0255,0.192499 0.296335,0.128335 0.543666,0.310333 0.742,0.546001 0.198334,0.235667 0.348833,0.519165 0.4515,0.8505 0.102667,0.331335 0.154,0.697664 0.154,1.098999 l 0,4.515 -1.253,0 0,-4.515 c 0,-0.536669 -0.122499,-0.953165 -0.3675,-1.249499 -0.245001,-0.296335 -0.617164,-0.4445 -1.1165,-0.4445 -0.368669,0 -0.712832,0.08866 -1.0325,0.266 -0.319668,0.177334 -0.614832,0.417665 -0.8855,0.721 l 0,5.221999 -1.253,0 0,-10.310999 1.253,0 0,4.165 z m 7.875,-0.945 0,7.090999 -1.246,0 0,-7.090999 1.246,0 z m 0.266,-2.226 c 0,0.121334 -0.0245,0.234499 -0.0735,0.3395 -0.049,0.105 -0.114333,0.198333 -0.196,0.28 -0.08167,0.08167 -0.177333,0.145833 -0.287,0.1925 -0.109667,0.04667 -0.225166,0.07 -0.3465,0.07 -0.121334,0 -0.234499,-0.02333 -0.3395,-0.07 -0.105001,-0.04667 -0.197166,-0.110833 -0.2765,-0.1925 -0.07933,-0.08167 -0.142333,-0.175 -0.189,-0.28 -0.04667,-0.105001 -0.07,-0.218166 -0.07,-0.3395 0,-0.121334 0.02333,-0.236833 0.07,-0.3465 0.04667,-0.109668 0.109666,-0.205333 0.189,-0.287 0.07933,-0.08167 0.171499,-0.145833 0.2765,-0.1925 0.105001,-0.04667 0.218166,-0.07 0.3395,-0.07 0.121334,0 0.236833,0.02333 0.3465,0.07 0.109667,0.04667 0.205333,0.110833 0.287,0.1925 0.08167,0.08167 0.147,0.177332 0.196,0.287 0.049,0.109667 0.0735,0.225166 0.0735,0.3465 z m 5.908,3.394999 c -0.056,0.102668 -0.14233,0.154001 -0.259,0.154001 -0.07,0 -0.14933,-0.02567 -0.238,-0.077 -0.0887,-0.05133 -0.19717,-0.108499 -0.3255,-0.1715 -0.12833,-0.063 -0.28117,-0.121333 -0.4585,-0.174999 -0.17733,-0.05367 -0.38733,-0.0805 -0.63,-0.0805 -0.210001,0 -0.398999,0.02683 -0.567,0.0805 -0.168001,0.05367 -0.311499,0.127166 -0.4305,0.2205 -0.119001,0.09333 -0.21,0.201832 -0.273,0.3255 -0.063,0.123667 -0.0945,0.257832 -0.0945,0.402499 0,0.182001 0.0525,0.333667 0.1575,0.455001 0.105,0.121333 0.243832,0.226332 0.4165,0.315 0.172667,0.08867 0.368666,0.166832 0.588,0.2345 0.21933,0.06767 0.4445,0.139999 0.6755,0.217 0.231,0.077 0.45617,0.162166 0.6755,0.2555 0.21933,0.09333 0.41533,0.209999 0.588,0.349999 0.17267,0.140001 0.3115,0.3115 0.4165,0.5145 0.105,0.203002 0.1575,0.446832 0.1575,0.731501 0,0.326668 -0.0583,0.628831 -0.175,0.906499 -0.11667,0.277669 -0.28933,0.517999 -0.518,0.721 -0.22867,0.203001 -0.50866,0.362833 -0.84,0.4795 -0.33133,0.116668 -0.714,0.175001 -1.148,0.175001 -0.494669,0 -0.942665,-0.0805 -1.344,-0.241501 -0.401335,-0.161 -0.741999,-0.367498 -1.022,-0.6195 l 0.294,-0.476 c 0.03733,-0.06067 0.08167,-0.107333 0.133,-0.139999 0.05133,-0.03267 0.116666,-0.049 0.196,-0.049 0.084,0 0.172666,0.03267 0.266,0.098 0.09333,0.06533 0.206499,0.137667 0.3395,0.217 0.133001,0.07933 0.295166,0.151667 0.4865,0.217 0.191334,0.06533 0.429332,0.098 0.714,0.098 0.24267,0 0.455,-0.0315 0.637,-0.0945 0.182,-0.063 0.33367,-0.148166 0.455,-0.2555 0.12133,-0.107333 0.21117,-0.230999 0.2695,-0.371 0.0583,-0.14 0.0875,-0.289332 0.0875,-0.448 0,-0.196 -0.0525,-0.358166 -0.1575,-0.4865 -0.105,-0.128333 -0.24383,-0.237999 -0.4165,-0.328999 -0.17267,-0.091 -0.36983,-0.170333 -0.5915,-0.238 -0.221668,-0.06767 -0.447999,-0.138833 -0.679,-0.213501 -0.231001,-0.07467 -0.457332,-0.159832 -0.679,-0.255499 -0.221668,-0.09567 -0.418832,-0.215833 -0.5915,-0.360501 -0.172668,-0.144667 -0.3115,-0.323165 -0.4165,-0.535499 -0.105,-0.212335 -0.1575,-0.470166 -0.1575,-0.7735 0,-0.270668 0.056,-0.530833 0.168,-0.7805 0.112001,-0.249668 0.275332,-0.469 0.49,-0.658 0.214668,-0.189001 0.478332,-0.3395 0.791,-0.4515 0.312668,-0.112001 0.669665,-0.168 1.071,-0.168 0.46667,0 0.8855,0.0735 1.2565,0.2205 0.371,0.147 0.69183,0.348832 0.9625,0.6055 l -0.28,0.454999 z m 3.185,-4.388999 0,6.069 0.322,0 c 0.0933,0 0.1715,-0.01283 0.2345,-0.0385 0.063,-0.02567 0.1295,-0.07817 0.1995,-0.157501 l 2.24,-2.401 c 0.0653,-0.07933 0.13417,-0.141166 0.2065,-0.185499 0.0723,-0.04433 0.16917,-0.0665 0.2905,-0.0665 l 1.127,0 -2.611,2.779 c -0.126,0.158667 -0.26133,0.282332 -0.406,0.371 0.084,0.056 0.15983,0.120166 0.2275,0.1925 0.0677,0.07233 0.13183,0.155166 0.1925,0.2485 l 2.772,3.499999 -1.113,0 c -0.10733,0 -0.1995,-0.0175 -0.2765,-0.0525 -0.077,-0.035 -0.1435,-0.09917 -0.1995,-0.192501 l -2.331,-2.905 c -0.07,-0.098 -0.13883,-0.162166 -0.2065,-0.192499 -0.0677,-0.03033 -0.1715,-0.0455 -0.3115,-0.0455 l -0.357,0 0,3.387999 -1.253,0 0,-10.310999 1.253,0 z"
           style="fill:#29558f" />
        <path
           id="APACHE"
           d="m 7.9280312,40.382813 -0.7455,-1.9495 c -0.05367,-0.133001 -0.107333,-0.300999 -0.161,-0.504 -0.02567,0.100334 -0.05192,0.193666 -0.07875,0.28 -0.02683,0.08633 -0.05308,0.163333 -0.07875,0.231 l -0.742,1.9425 1.806,0 z m 1.4735,1.8725 -0.574,0 c -0.06533,0 -0.119,-0.01633 -0.161,-0.049 -0.042,-0.03267 -0.07233,-0.07467 -0.091,-0.126 l -0.4445,-1.1655 -2.2155,0 -0.4445,1.1655 c -0.01633,0.04433 -0.04667,0.08458 -0.091,0.12075 -0.044334,0.03617 -0.098,0.05425 -0.161,0.05425 l -0.574,0 2.002,-5.026 0.7525,0 2.002,5.026 z m 3.0239998,-2.4395 c 0.189001,0 0.355249,-0.0245 0.49875,-0.0735 0.143501,-0.049 0.263666,-0.118416 0.3605,-0.20825 0.09683,-0.08983 0.16975,-0.197166 0.21875,-0.322 0.049,-0.124834 0.0735,-0.263082 0.0735,-0.41475 0,-0.305668 -0.09508,-0.545999 -0.28525,-0.721 -0.190168,-0.175001 -0.478915,-0.2625 -0.86625,-0.2625 l -0.777,0 0,2.002 0.777,0 z m 0,-2.5865 c 0.322002,0 0.601999,0.03733 0.84,0.112 0.238001,0.07467 0.435166,0.180249 0.5915,0.31675 0.156334,0.136501 0.272416,0.301583 0.34825,0.49525 0.07583,0.193668 0.11375,0.408332 0.11375,0.644 0,0.235668 -0.04083,0.452082 -0.1225,0.64925 -0.08167,0.197168 -0.201833,0.366916 -0.3605,0.50925 -0.158668,0.142334 -0.356415,0.252583 -0.59325,0.33075 -0.236834,0.07817 -0.509249,0.11725 -0.81725,0.11725 l -0.777,0 0,1.8515 -0.7455,0 0,-5.026 1.5225,0 z m 5.908,3.1535 -0.7455,-1.9495 c -0.05367,-0.133001 -0.107333,-0.300999 -0.161,-0.504 -0.02567,0.100334 -0.05192,0.193666 -0.07875,0.28 -0.02683,0.08633 -0.05308,0.163333 -0.07875,0.231 l -0.742,1.9425 1.806,0 z m 1.4735,1.8725 -0.574,0 c -0.06533,0 -0.119,-0.01633 -0.161,-0.049 -0.042,-0.03267 -0.07233,-0.07467 -0.091,-0.126 l -0.4445,-1.1655 -2.2155,0 -0.4445,1.1655 c -0.01633,0.04433 -0.04667,0.08458 -0.091,0.12075 -0.04433,0.03617 -0.098,0.05425 -0.161,0.05425 l -0.574,0 2.002,-5.026 0.7525,0 2.002,5.026 z m 4.8755,-1.078 c 0.042,0 0.07817,0.01633 0.1085,0.049 l 0.294,0.322 c -0.205334,0.242668 -0.455582,0.430499 -0.75075,0.5635 -0.295168,0.133001 -0.650415,0.1995 -1.06575,0.1995 -0.364002,0 -0.693582,-0.063 -0.98875,-0.189 -0.295168,-0.126 -0.547166,-0.302165 -0.756,-0.5285 -0.208834,-0.226334 -0.370416,-0.496998 -0.48475,-0.812 -0.114334,-0.315001 -0.1715,-0.661498 -0.1715,-1.0395 0,-0.378002 0.06008,-0.724498 0.18025,-1.0395 0.120167,-0.315001 0.288749,-0.585665 0.50575,-0.812 0.217001,-0.226334 0.476582,-0.402499 0.77875,-0.5285 0.302168,-0.126 0.636415,-0.189 1.00275,-0.189 0.357002,0 0.674332,0.05833 0.952,0.175 0.277668,0.116667 0.519166,0.271833 0.7245,0.4655 l -0.245,0.3465 c -0.01633,0.02567 -0.03675,0.04667 -0.06125,0.063 -0.0245,0.01633 -0.05658,0.0245 -0.09625,0.0245 -0.04433,0 -0.09625,-0.02217 -0.15575,-0.0665 -0.0595,-0.04433 -0.137666,-0.09392 -0.2345,-0.14875 -0.09683,-0.05483 -0.216416,-0.104416 -0.35875,-0.14875 -0.142334,-0.04433 -0.319666,-0.0665 -0.532,-0.0665 -0.249668,0 -0.478332,0.04375 -0.686,0.13125 -0.207668,0.0875 -0.386749,0.213499 -0.53725,0.378 -0.150501,0.164501 -0.267166,0.366332 -0.35,0.6055 -0.08283,0.239168 -0.12425,0.509249 -0.12425,0.81025 0,0.305668 0.04317,0.577499 0.1295,0.8155 0.08633,0.238001 0.205333,0.439833 0.357,0.6055 0.151667,0.165668 0.330166,0.291666 0.5355,0.378 0.205334,0.08633 0.426999,0.1295 0.665,0.1295 0.144667,0 0.274749,-0.0087 0.39025,-0.02625 0.115501,-0.0175 0.221666,-0.04375 0.3185,-0.07875 0.09683,-0.035 0.188416,-0.07992 0.27475,-0.13475 0.08633,-0.05483 0.1715,-0.120749 0.2555,-0.19775 0.01867,-0.01633 0.0385,-0.02975 0.0595,-0.04025 0.021,-0.0105 0.04317,-0.01575 0.0665,-0.01575 z m 6.146,-3.948 0,5.026 -0.7455,0 0,-2.2645 -2.6215,0 0,2.2645 -0.749,0 0,-5.026 0.749,0 0,2.219 2.6215,0 0,-2.219 0.7455,0 z m 5.236,4.4205 -0.0035,0.6055 -3.115,0 0,-5.026 3.115,0 0,0.6055 -2.366,0 0,1.5925 1.904,0 0,0.5845 -1.904,0 0,1.638 2.3695,0 z"
           style="fill:#325c80" />
      </g>
    </g>
  </g>
</svg>
